<svg width="29" height="26" viewBox="0 0 29 26" fill="none" xmlns="http://www.w3.org/2000/svg">
<path d="M3.14534 9.52369C2.95674 9.29165 2.82256 9.02028 2.75269 8.72954C2.68281 8.4388 2.67902 8.13609 2.74159 7.84369C3.67034 3.45369 8.69784 0.266188 14.6978 0.266188C20.6978 0.266188 25.7253 3.45369 26.6541 7.84369C26.7173 8.1363 26.7141 8.43938 26.6446 8.73057C26.5751 9.02176 26.4411 9.29363 26.2525 9.52613C26.0639 9.75863 25.8255 9.94583 25.5549 10.0739C25.2843 10.202 24.9885 10.2677 24.6891 10.2662H4.70659C4.40739 10.2671 4.1118 10.2008 3.8416 10.0723C3.57139 9.94384 3.33346 9.75635 3.14534 9.52369ZM27.3553 16.3262L22.2141 18.2012L17.5728 16.3374C17.3345 16.2421 17.0687 16.2421 16.8303 16.3374L12.2053 18.1887L7.57284 16.3374C7.34478 16.2463 7.09117 16.2423 6.86034 16.3262L1.36034 18.3262C1.12789 18.4285 0.943074 18.6154 0.843415 18.8491C0.743756 19.0827 0.736718 19.3454 0.82373 19.584C0.910742 19.8226 1.08528 20.0192 1.31193 20.1338C1.53857 20.2484 1.80034 20.2725 2.04409 20.2012L3.69784 19.6024V20.2662C3.69784 21.5923 4.22463 22.864 5.16231 23.8017C6.09999 24.7394 7.37176 25.2662 8.69784 25.2662H20.6978C22.0239 25.2662 23.2957 24.7394 24.2334 23.8017C25.1711 22.864 25.6978 21.5923 25.6978 20.2662V19.0574L28.0391 18.2062C28.1704 18.1678 28.2924 18.1028 28.3976 18.0154C28.5027 17.9279 28.5889 17.8198 28.6506 17.6977C28.7123 17.5757 28.7484 17.4422 28.7565 17.3057C28.7646 17.1691 28.7446 17.0324 28.6977 16.9038C28.6508 16.7753 28.5781 16.6578 28.484 16.5585C28.3899 16.4592 28.2764 16.3803 28.1506 16.3266C28.0248 16.273 27.8893 16.2457 27.7525 16.2465C27.6157 16.2472 27.4805 16.2761 27.3553 16.3312V16.3262ZM1.69784 14.2662H27.6978C27.9631 14.2662 28.2174 14.1608 28.4049 13.9733C28.5925 13.7858 28.6978 13.5314 28.6978 13.2662C28.6978 13.001 28.5925 12.7466 28.4049 12.5591C28.2174 12.3715 27.9631 12.2662 27.6978 12.2662H1.69784C1.43263 12.2662 1.17827 12.3715 0.990735 12.5591C0.803198 12.7466 0.697842 13.001 0.697842 13.2662C0.697842 13.5314 0.803198 13.7858 0.990735 13.9733C1.17827 14.1608 1.43263 14.2662 1.69784 14.2662Z" fill="white"/>
</svg>
