<svg width="27" height="27" viewBox="0 0 27 27" fill="none" xmlns="http://www.w3.org/2000/svg">
<path d="M13.0302 0.5C10.459 0.5 7.94561 1.26244 5.80777 2.6909C3.66993 4.11935 2.00369 6.14968 1.01975 8.52512C0.0358117 10.9006 -0.221632 13.5144 0.279976 16.0362C0.781584 18.5579 2.01971 20.8743 3.8378 22.6924C5.65588 24.5105 7.97226 25.7486 10.494 26.2502C13.0158 26.7518 15.6296 26.4944 18.0051 25.5104C20.3805 24.5265 22.4108 22.8603 23.8393 20.7224C25.2677 18.5846 26.0302 16.0712 26.0302 13.5C26.0265 10.0533 24.6557 6.74882 22.2186 4.31163C19.7814 1.87445 16.4769 0.50364 13.0302 0.5ZM17.7377 16.7925C17.8306 16.8854 17.9043 16.9957 17.9546 17.1171C18.0049 17.2385 18.0307 17.3686 18.0307 17.5C18.0307 17.6314 18.0049 17.7615 17.9546 17.8829C17.9043 18.0043 17.8306 18.1146 17.7377 18.2075C17.6448 18.3004 17.5345 18.3741 17.4131 18.4244C17.2917 18.4747 17.1616 18.5006 17.0302 18.5006C16.8988 18.5006 16.7687 18.4747 16.6473 18.4244C16.5259 18.3741 16.4156 18.3004 16.3227 18.2075L13.0302 14.9137L9.73769 18.2075C9.64477 18.3004 9.53447 18.3741 9.41308 18.4244C9.29169 18.4747 9.16158 18.5006 9.03018 18.5006C8.89879 18.5006 8.76868 18.4747 8.64729 18.4244C8.5259 18.3741 8.41559 18.3004 8.32268 18.2075C8.22977 18.1146 8.15607 18.0043 8.10579 17.8829C8.05551 17.7615 8.02963 17.6314 8.02963 17.5C8.02963 17.3686 8.05551 17.2385 8.10579 17.1171C8.15607 16.9957 8.22977 16.8854 8.32268 16.7925L11.6164 13.5L8.32268 10.2075C8.13504 10.0199 8.02963 9.76536 8.02963 9.5C8.02963 9.23464 8.13504 8.98014 8.32268 8.7925C8.51032 8.60486 8.76482 8.49944 9.03018 8.49944C9.29555 8.49944 9.55004 8.60486 9.73769 8.7925L13.0302 12.0863L16.3227 8.7925C16.4156 8.69959 16.5259 8.62589 16.6473 8.57561C16.7687 8.52532 16.8988 8.49944 17.0302 8.49944C17.1616 8.49944 17.2917 8.52532 17.4131 8.57561C17.5345 8.62589 17.6448 8.69959 17.7377 8.7925C17.8306 8.88541 17.9043 8.99571 17.9546 9.1171C18.0049 9.2385 18.0307 9.36861 18.0307 9.5C18.0307 9.63139 18.0049 9.7615 17.9546 9.8829C17.9043 10.0043 17.8306 10.1146 17.7377 10.2075L14.4439 13.5L17.7377 16.7925Z" fill="white"/>
</svg>
