<svg width="26" height="25" viewBox="0 0 26 25" fill="none" xmlns="http://www.w3.org/2000/svg">
<path d="M25.9952 9C25.9952 9.26522 25.8898 9.51957 25.7023 9.70711C25.5147 9.89464 25.2604 10 24.9952 10H22.9952V12C22.9952 12.2652 22.8898 12.5196 22.7023 12.7071C22.5147 12.8946 22.2604 13 21.9952 13C21.73 13 21.4756 12.8946 21.2881 12.7071C21.1005 12.5196 20.9952 12.2652 20.9952 12V10H18.9952C18.73 10 18.4756 9.89464 18.2881 9.70711C18.1005 9.51957 17.9952 9.26522 17.9952 9C17.9952 8.73478 18.1005 8.48043 18.2881 8.29289C18.4756 8.10536 18.73 8 18.9952 8H20.9952V6C20.9952 5.73478 21.1005 5.48043 21.2881 5.29289C21.4756 5.10536 21.73 5 21.9952 5C22.2604 5 22.5147 5.10536 22.7023 5.29289C22.8898 5.48043 22.9952 5.73478 22.9952 6V8H24.9952C25.2604 8 25.5147 8.10536 25.7023 8.29289C25.8898 8.48043 25.9952 8.73478 25.9952 9ZM13.9952 4H14.9952V5C14.9952 5.26522 15.1005 5.51957 15.2881 5.70711C15.4756 5.89464 15.73 6 15.9952 6C16.2604 6 16.5147 5.89464 16.7023 5.70711C16.8898 5.51957 16.9952 5.26522 16.9952 5V4H17.9952C18.2604 4 18.5147 3.89464 18.7023 3.70711C18.8898 3.51957 18.9952 3.26522 18.9952 3C18.9952 2.73478 18.8898 2.48043 18.7023 2.29289C18.5147 2.10536 18.2604 2 17.9952 2H16.9952V1C16.9952 0.734784 16.8898 0.48043 16.7023 0.292893C16.5147 0.105357 16.2604 0 15.9952 0C15.73 0 15.4756 0.105357 15.2881 0.292893C15.1005 0.48043 14.9952 0.734784 14.9952 1V2H13.9952C13.73 2 13.4756 2.10536 13.2881 2.29289C13.1005 2.48043 12.9952 2.73478 12.9952 3C12.9952 3.26522 13.1005 3.51957 13.2881 3.70711C13.4756 3.89464 13.73 4 13.9952 4ZM22.1377 15.7913C20.364 16.1417 18.5312 16.0499 16.8014 15.5239C15.0716 14.998 13.498 14.0541 12.2195 12.7756C10.9411 11.4972 9.9972 9.92354 9.47125 8.19374C8.9453 6.46393 8.85348 4.63121 9.20392 2.8575C9.23825 2.68343 9.22565 2.50337 9.16742 2.33578C9.10918 2.16819 9.00741 2.01911 8.87254 1.90384C8.73768 1.78857 8.57457 1.71125 8.39996 1.67982C8.22534 1.64839 8.04551 1.66399 7.87892 1.725C5.98534 2.41741 4.29674 3.57578 2.96906 5.09313C1.64139 6.61048 0.717428 8.4379 0.282512 10.4066C-0.152405 12.3754 -0.0842588 14.422 0.480657 16.3574C1.04557 18.2929 2.08905 20.0548 3.51472 21.4804C4.94039 22.9061 6.7023 23.9496 8.63775 24.5145C10.5732 25.0794 12.6198 25.1476 14.5885 24.7127C16.5573 24.2777 18.3847 23.3538 19.902 22.0261C21.4194 20.6984 22.5778 19.0098 23.2702 17.1162C23.3312 16.9497 23.3468 16.7698 23.3153 16.5952C23.2839 16.4206 23.2066 16.2575 23.0913 16.1226C22.9761 15.9878 22.827 15.886 22.6594 15.8278C22.4918 15.7695 22.3117 15.7569 22.1377 15.7913Z" fill="white"/>
</svg>
