<svg width="31" height="31" viewBox="0 0 31 31" fill="none" xmlns="http://www.w3.org/2000/svg">
<path d="M14.0302 4.5V1.5C14.0302 1.23478 14.1355 0.98043 14.3231 0.792893C14.5106 0.605357 14.765 0.5 15.0302 0.5C15.2954 0.5 15.5498 0.605357 15.7373 0.792893C15.9248 0.98043 16.0302 1.23478 16.0302 1.5V4.5C16.0302 4.76522 15.9248 5.01957 15.7373 5.20711C15.5498 5.39464 15.2954 5.5 15.0302 5.5C14.765 5.5 14.5106 5.39464 14.3231 5.20711C14.1355 5.01957 14.0302 4.76522 14.0302 4.5ZM15.0302 7.5C13.4479 7.5 11.9012 7.96919 10.5856 8.84824C9.27003 9.72729 8.24465 10.9767 7.63915 12.4385C7.03365 13.9003 6.87522 15.5089 7.1839 17.0607C7.49259 18.6126 8.25451 20.038 9.37333 21.1569C10.4922 22.2757 11.9176 23.0376 13.4695 23.3463C15.0213 23.655 16.6298 23.4965 18.0917 22.891C19.5535 22.2855 20.8029 21.2602 21.6819 19.9446C22.561 18.629 23.0302 17.0823 23.0302 15.5C23.0279 13.379 22.1843 11.3455 20.6845 9.8457C19.1847 8.34591 17.1512 7.50232 15.0302 7.5ZM6.32269 8.2075C6.51033 8.39514 6.76482 8.50056 7.03019 8.50056C7.29555 8.50056 7.55005 8.39514 7.73769 8.2075C7.92533 8.01986 8.03074 7.76536 8.03074 7.5C8.03074 7.23464 7.92533 6.98014 7.73769 6.7925L5.73769 4.7925C5.55005 4.60486 5.29555 4.49944 5.03019 4.49944C4.76482 4.49944 4.51033 4.60486 4.32269 4.7925C4.13505 4.98014 4.02963 5.23464 4.02963 5.5C4.02963 5.76536 4.13505 6.01986 4.32269 6.2075L6.32269 8.2075ZM6.32269 22.7925L4.32269 24.7925C4.13505 24.9801 4.02963 25.2346 4.02963 25.5C4.02963 25.7654 4.13505 26.0199 4.32269 26.2075C4.51033 26.3951 4.76482 26.5006 5.03019 26.5006C5.29555 26.5006 5.55005 26.3951 5.73769 26.2075L7.73769 24.2075C7.8306 24.1146 7.9043 24.0043 7.95458 23.8829C8.00486 23.7615 8.03074 23.6314 8.03074 23.5C8.03074 23.3686 8.00486 23.2385 7.95458 23.1171C7.9043 22.9957 7.8306 22.8854 7.73769 22.7925C7.64478 22.6996 7.53448 22.6259 7.41308 22.5756C7.29169 22.5253 7.16158 22.4994 7.03019 22.4994C6.89879 22.4994 6.76868 22.5253 6.64729 22.5756C6.5259 22.6259 6.4156 22.6996 6.32269 22.7925ZM23.0302 8.5C23.1615 8.5001 23.2916 8.47432 23.413 8.42414C23.5344 8.37395 23.6447 8.30033 23.7377 8.2075L25.7377 6.2075C25.9253 6.01986 26.0307 5.76536 26.0307 5.5C26.0307 5.23464 25.9253 4.98014 25.7377 4.7925C25.55 4.60486 25.2955 4.49944 25.0302 4.49944C24.7648 4.49944 24.5103 4.60486 24.3227 4.7925L22.3227 6.7925C22.1827 6.93236 22.0873 7.11061 22.0487 7.30469C22.01 7.49878 22.0298 7.69997 22.1056 7.88279C22.1813 8.06561 22.3096 8.22185 22.4742 8.33172C22.6388 8.44159 22.8323 8.50016 23.0302 8.5ZM23.7377 22.7925C23.55 22.6049 23.2955 22.4994 23.0302 22.4994C22.7648 22.4994 22.5103 22.6049 22.3227 22.7925C22.135 22.9801 22.0296 23.2346 22.0296 23.5C22.0296 23.7654 22.135 24.0199 22.3227 24.2075L24.3227 26.2075C24.4156 26.3004 24.5259 26.3741 24.6473 26.4244C24.7687 26.4747 24.8988 26.5006 25.0302 26.5006C25.1616 26.5006 25.2917 26.4747 25.4131 26.4244C25.5345 26.3741 25.6448 26.3004 25.7377 26.2075C25.8306 26.1146 25.9043 26.0043 25.9546 25.8829C26.0049 25.7615 26.0307 25.6314 26.0307 25.5C26.0307 25.3686 26.0049 25.2385 25.9546 25.1171C25.9043 24.9957 25.8306 24.8854 25.7377 24.7925L23.7377 22.7925ZM5.03019 15.5C5.03019 15.2348 4.92483 14.9804 4.73729 14.7929C4.54976 14.6054 4.2954 14.5 4.03019 14.5H1.03019C0.764969 14.5 0.510615 14.6054 0.323079 14.7929C0.135542 14.9804 0.0301857 15.2348 0.0301857 15.5C0.0301857 15.7652 0.135542 16.0196 0.323079 16.2071C0.510615 16.3946 0.764969 16.5 1.03019 16.5H4.03019C4.2954 16.5 4.54976 16.3946 4.73729 16.2071C4.92483 16.0196 5.03019 15.7652 5.03019 15.5ZM15.0302 25.5C14.765 25.5 14.5106 25.6054 14.3231 25.7929C14.1355 25.9804 14.0302 26.2348 14.0302 26.5V29.5C14.0302 29.7652 14.1355 30.0196 14.3231 30.2071C14.5106 30.3946 14.765 30.5 15.0302 30.5C15.2954 30.5 15.5498 30.3946 15.7373 30.2071C15.9248 30.0196 16.0302 29.7652 16.0302 29.5V26.5C16.0302 26.2348 15.9248 25.9804 15.7373 25.7929C15.5498 25.6054 15.2954 25.5 15.0302 25.5ZM29.0302 14.5H26.0302C25.765 14.5 25.5106 14.6054 25.3231 14.7929C25.1355 14.9804 25.0302 15.2348 25.0302 15.5C25.0302 15.7652 25.1355 16.0196 25.3231 16.2071C25.5106 16.3946 25.765 16.5 26.0302 16.5H29.0302C29.2954 16.5 29.5498 16.3946 29.7373 16.2071C29.9248 16.0196 30.0302 15.7652 30.0302 15.5C30.0302 15.2348 29.9248 14.9804 29.7373 14.7929C29.5498 14.6054 29.2954 14.5 29.0302 14.5Z" fill="white"/>
</svg>
