<svg width="28" height="22" viewBox="0 0 28 22" fill="none" xmlns="http://www.w3.org/2000/svg">
<path d="M26 0.5H2C1.60218 0.5 1.22064 0.658035 0.93934 0.93934C0.658035 1.22064 0.5 1.60218 0.5 2V19C0.5 19.663 0.763392 20.2989 1.23223 20.7678C1.70107 21.2366 2.33696 21.5 3 21.5H25C25.663 21.5 26.2989 21.2366 26.7678 20.7678C27.2366 20.2989 27.5 19.663 27.5 19V2C27.5 1.60218 27.342 1.22064 27.0607 0.93934C26.7794 0.658035 26.3978 0.5 26 0.5ZM14 10.965L5.85625 3.5H22.1437L14 10.965ZM9.59875 11L3.5 16.59V5.41L9.59875 11ZM11.8188 13.035L12.9862 14.1063C13.2629 14.3599 13.6246 14.5007 14 14.5007C14.3754 14.5007 14.7371 14.3599 15.0138 14.1063L16.1812 13.035L22.1437 18.5H5.85625L11.8188 13.035ZM18.4013 11L24.5 5.41V16.59L18.4013 11Z" fill="#7E22CE"/>
</svg>
