<svg width="23" height="28" viewBox="0 0 23 28" fill="none" xmlns="http://www.w3.org/2000/svg">
<path d="M19.605 13.0575C19.2116 12.7623 18.7934 12.5018 18.355 12.2788C17.89 9.56875 16.3038 7.6025 13.915 6.87875C11.2425 6.06875 8.16125 7.0525 6.75 9.1675C6.52921 9.49902 6.44915 9.90467 6.52745 10.2952C6.60575 10.6858 6.83598 11.0292 7.1675 11.25C7.49902 11.4708 7.90467 11.5508 8.29522 11.4725C8.68576 11.3943 9.02921 11.164 9.25 10.8325C9.93375 9.8075 11.6388 9.3225 13.0513 9.75C13.4479 9.86752 13.8169 10.0635 14.1364 10.3263C14.456 10.5891 14.7194 10.9134 14.9112 11.28C14.5433 11.2424 14.1736 11.2236 13.8037 11.2238C9.57 11.2238 6.5 13.6525 6.5 17C6.5 19.8625 8.6925 21.94 11.7137 21.94C12.5838 21.9351 13.4441 21.7555 14.2435 21.412C15.0429 21.0684 15.7651 20.5679 16.3675 19.94C17.1175 19.1613 17.9775 17.8825 18.3325 15.9312C19.1075 16.7337 19.5 17.765 19.5 19.005C19.5 21.2225 17.1163 24.505 12 24.505C6.28 24.505 3.5 21.07 3.5 14.005C3.5 6.94 6.28 3.505 12 3.505C15.885 3.505 18.375 5.0575 19.6 8.255C19.7429 8.6263 20.0274 8.92564 20.391 9.08715C20.7546 9.24867 21.1674 9.25914 21.5387 9.11625C21.9101 8.97336 22.2094 8.68883 22.3709 8.32525C22.5324 7.96166 22.5429 7.5488 22.4 7.1775C20.7212 2.805 17.125 0.5 12 0.5C4.58375 0.5 0.5 5.29375 0.5 14C0.5 22.7063 4.58375 27.5 12 27.5C15.92 27.5 18.385 25.9938 19.7638 24.7313C21.4763 23.16 22.5 21.0175 22.5 19C22.5 16.545 21.5 14.49 19.605 13.0575ZM14.205 17.8563C13.8834 18.1944 13.4972 18.4645 13.0692 18.6507C12.6413 18.8368 12.1804 18.9352 11.7137 18.94C10.6925 18.94 9.5 18.4325 9.5 17C9.5 15.0925 11.73 14.2237 13.8013 14.2237C14.3695 14.2231 14.9361 14.2869 15.49 14.4137C15.42 15.8662 14.98 17.0513 14.205 17.8563Z" fill="#7E22CE"/>
</svg>
